<svg width="20" height="444" viewBox="0 0 20 444" fill="none" xmlns="http://www.w3.org/2000/svg">
<rect x="4" y="156" width="12" height="12" fill="#D6A322"/>
<rect x="3" y="187" width="14" height="14" fill="#FCBA13"/>
<rect x="0.5" y="184.5" width="19" height="19" stroke="#FCBA13"/>
<rect x="4" y="220" width="12" height="12" fill="#D6A322"/>
<rect x="4" y="248" width="12" height="12" fill="#D6A322"/>
<path d="M11.1042 137.773L16.7882 131.911L10.9266 126.227L5.24256 132.089L11.1042 137.773ZM8.00012 1.01538L10.0155 132.015L12.0153 131.984L9.99988 0.984617L8.00012 1.01538Z" fill="#D6A322"/>
<path d="M10 278.226L4.2265 284L10 289.774L15.7735 284L10 278.226ZM9 284L9 444H11L11 284H9Z" fill="#D6A322"/>
</svg>
