<svg width="286" height="40" viewBox="0 0 286 40" fill="none" xmlns="http://www.w3.org/2000/svg">
  <path d="M93.4295 14.4664H98.8169V14.6284L96.9728 16.2349C96.887 18.9223 96.8576 21.4291 96.8871 23.6889C96.8871 25.9912 96.9728 28.1395 97.0908 30.1364H94.9465C94.9324 29.9684 94.8594 29.8106 94.7401 29.6903C94.5874 29.5097 94.4319 29.3238 94.3086 29.1592L85.0322 17.6025C85.0322 21.1476 85.0884 24.7006 85.2037 28.3466L87.2273 29.8443V30.0541H81.8667V29.8443L83.7027 28.3466C83.8716 25.2078 83.8716 21.1768 83.7027 16.1792L81.5049 14.6284V14.4664H86.1766C86.5167 15.0275 86.9021 15.5603 87.3292 16.0597C87.8652 16.782 88.546 17.6131 89.3849 18.5983C90.2239 19.5835 91.1244 20.7227 92.1617 22.0319C93.199 23.341 94.3703 24.7776 95.6622 26.44C95.6622 24.4988 95.6434 22.7011 95.6354 20.9936C95.6273 19.2861 95.5764 17.7034 95.5603 16.2456L93.4402 14.639L93.4295 14.4664ZM108.171 15.8924L109.975 14.631V14.4717H103.652V14.631L105.469 15.8924C105.491 20.0562 105.491 24.2439 105.469 28.5059L103.593 29.8045V29.9983H110.061V29.8045L108.184 28.5059C108.104 24.4404 108.104 20.2739 108.184 15.8924H108.171ZM125.952 28.6706C123.722 28.7626 121.589 28.7626 119.554 28.6706C119.517 26.6206 119.517 24.5847 119.554 22.563C120.736 22.5285 122.374 22.5099 124.481 22.5099L125.689 24.2811H125.864V19.472H125.689L124.481 21.2804C121.704 21.2804 120.034 21.2512 119.517 21.2193C119.493 20.3403 119.458 19.4507 119.458 18.5638C119.458 17.6769 119.458 16.7899 119.493 15.826C120.468 15.7517 121.53 15.7384 122.57 15.7384C123.609 15.7384 124.714 15.7517 125.864 15.7517L127.18 17.5468H127.354V14.4664H115.067V14.6284L116.861 15.8924C116.903 19.5118 116.903 23.6942 116.861 28.5086L115.073 29.8018V29.9983H127.67V26.5462H127.493L125.952 28.6706ZM71.7486 14.6284L73.8339 16.2349C73.8527 17.6928 73.8795 19.2675 73.8956 20.983C73.9116 22.6984 73.9277 24.4882 73.9277 26.4294C72.6814 24.767 71.5155 23.3224 70.4702 22.0213C69.4249 20.7201 68.4599 19.5463 67.6425 18.5877C66.825 17.6291 66.1737 16.7714 65.6242 16.0491C65.203 15.544 64.8162 15.0117 64.4663 14.4558H59.8053V14.6178L61.9844 16.1898C62.1559 21.1742 62.1559 25.2185 61.9844 28.3572L60.1752 29.8549V30.0647H65.5357V29.8549L63.5121 28.3572C63.3969 24.7113 63.3138 21.1582 63.3138 17.6131L72.6037 29.1804C72.753 29.3489 72.8918 29.5262 73.0191 29.7115C73.1417 29.8313 73.2201 29.9884 73.2416 30.1577H75.3858C75.2375 28.1607 75.1642 26.0116 75.166 23.7101C75.1499 21.4503 75.166 18.9435 75.2732 16.2562L77.1146 14.6496V14.4876H71.754L71.7486 14.6284ZM4.4976 10.5469L6.90986 12.0287L7.068 28.7184C7.068 29.4035 7.068 29.9797 7.04119 30.5002C7.01685 30.9682 6.96674 31.4345 6.8911 31.897C6.81351 32.3071 6.68663 32.7065 6.51318 33.0867C6.31895 33.4675 6.07961 33.8241 5.80022 34.1489C5.43311 34.5916 4.97663 34.9534 4.46008 35.211C3.92488 35.4746 3.3311 35.5997 2.73397 35.5749C2.80794 35.4982 2.8662 35.408 2.90551 35.3093C2.96092 35.215 3.00415 35.1142 3.03417 35.0092C3.06681 34.87 3.08212 34.7273 3.07973 34.5844C3.08093 34.423 3.04325 34.2637 2.96984 34.1196C2.88353 33.9466 2.77546 33.7851 2.6482 33.639C2.50347 33.5122 2.33983 33.4083 2.16307 33.331C1.98335 33.238 1.78417 33.188 1.58145 33.1849C1.37881 33.1878 1.17863 33.2293 0.991788 33.3071C0.805939 33.3817 0.637264 33.4928 0.495935 33.6337C0.342115 33.773 0.224436 33.947 0.152858 34.1409C0.0526139 34.3387 0.000303307 34.5569 8.19284e-05 34.7782C-0.00306205 35.0924 0.0843403 35.4011 0.252029 35.6678C0.4139 35.9189 0.631075 36.1304 0.887257 36.2865C1.14929 36.441 1.43287 36.5565 1.72887 36.6291C2.02081 36.712 2.32305 36.754 2.62676 36.7539C3.2269 36.7512 3.82259 36.6517 4.39039 36.4591C4.94399 36.2658 5.46802 35.9977 5.94764 35.6625C6.44349 35.3067 6.8983 34.898 7.30386 34.4436C7.71722 33.9545 8.07245 33.4199 8.36257 32.8503C8.6306 32.3564 8.87719 31.8784 9.09429 31.4084C9.34629 30.9279 9.53802 30.4187 9.66519 29.8921C9.83523 29.3189 9.95715 28.7327 10.0297 28.1395C10.1162 27.4215 10.1493 26.6981 10.1289 25.9753C10.1128 25.1229 10.094 24.2704 10.078 23.3755C10.0619 22.4807 10.0538 21.4689 10.0297 20.3456C10.0056 19.2224 9.99755 17.9982 9.98147 16.628C9.96538 15.2577 9.9493 13.6326 9.9493 11.8481L11.9488 10.5628V10.3823H4.4976V10.5469ZM30.2283 25.3858C30.5649 24.3728 30.7253 23.3105 30.7028 22.2443C30.7119 21.2696 30.581 20.2986 30.3141 19.3605C30.0818 18.546 29.7101 17.7772 29.2152 17.0874C28.751 16.4492 28.1436 15.9265 27.4408 15.5605C26.7113 15.1842 25.8992 14.9927 25.0768 15.0028C24.264 14.9938 23.4617 15.1855 22.7423 15.5605C22.0561 15.9422 21.4631 16.4689 21.0055 17.1033C20.5037 17.7836 20.1305 18.5483 19.9039 19.3605C19.6531 20.3014 19.5296 21.2712 19.5367 22.2443C19.5207 23.2748 19.6709 24.3013 19.9816 25.2848C20.2472 26.1237 20.671 26.9049 21.2306 27.5872C21.7367 28.1842 22.3547 28.6783 23.0505 29.0424C23.7345 29.3503 24.4757 29.514 25.2269 29.523C25.93 29.5121 26.6236 29.3613 27.2666 29.0795C27.931 28.7079 28.5207 28.2182 29.0061 27.6349C29.5531 26.9675 29.9694 26.2047 30.2337 25.3858H30.2283ZM32.5575 17.9185C32.9526 18.549 33.2617 19.2285 33.4769 19.9394C33.9865 21.7629 33.8725 23.7023 33.1525 25.4548C32.7247 26.4462 32.1097 27.3475 31.3407 28.1103C30.585 28.9017 29.6725 29.53 28.6604 29.9558C27.6177 30.5002 26.4974 30.6064 25.2886 30.6064C24.0798 30.6064 22.9594 30.5002 21.9114 29.9797C20.883 29.543 19.9466 28.9187 19.1507 28.1395C18.3507 27.389 17.7125 26.4856 17.2745 25.484C16.8145 24.4654 16.5822 23.3602 16.5937 22.2443C16.6014 20.5747 17.1084 18.9447 18.0506 17.5604C18.9927 16.1761 20.3279 15.0994 21.8873 14.4664C22.9923 14.0178 24.1776 13.7956 25.3717 13.8131C26.0766 13.8077 26.779 13.897 27.4596 14.0787C28.1482 14.2613 28.8077 14.5384 29.4189 14.9019C30.0575 15.2537 30.6371 15.7016 31.137 16.2296C31.6999 16.7024 32.1768 17.2674 32.5468 17.8999L32.5575 17.9185ZM48.8537 14.6098L50.6575 15.8897V21.2007C47.8405 21.214 45.0825 21.214 42.3486 21.2007V15.8897L44.1524 14.6284V14.4664H37.8806V14.6284L39.6362 15.8897V28.5033L37.8806 29.8045V29.9983H44.1444V29.8018L42.3406 28.5006V22.4568C45.0852 22.4302 47.8432 22.4302 50.6494 22.4568V28.5033L48.8429 29.8045V29.9983H55.1094V29.8018L53.3324 28.5006C53.2815 24.5519 53.2815 20.3881 53.3324 15.8871L55.1094 14.6257V14.4637H48.8537V14.6098ZM191.225 10.5735C191.525 10.7514 191.831 10.9771 192.139 11.1816C192.447 11.386 192.739 11.6144 193.007 11.8242C192.439 13.8716 191.882 15.6959 191.426 17.3768C190.97 19.0577 190.526 20.4386 190.172 21.6548C189.818 22.871 189.536 23.8323 189.314 24.621C189.092 25.4097 188.968 25.9222 188.907 26.2143L184.559 12.0154C184.862 11.7153 185.146 11.4391 185.414 11.2001C185.673 10.9791 185.947 10.7759 186.234 10.592V10.4088H179.311V10.6133L181.053 11.941C180.571 13.4254 180.137 14.8382 179.729 16.2111C179.335 17.5388 178.957 18.7895 178.609 19.9606C178.261 21.1317 177.944 22.2284 177.641 23.2375C177.339 24.2465 177.076 25.2185 176.819 26.1399L172.696 11.9756L174.385 10.592V10.4088H167.706V10.592C167.992 10.8178 168.242 11.0036 168.437 11.1762C168.605 11.2986 168.765 11.4307 168.917 11.5719C169.026 11.6617 169.125 11.7642 169.209 11.8773C169.293 11.9689 169.349 12.0822 169.37 12.2039C169.59 12.8811 169.885 13.8344 170.297 15.0479C170.702 16.3252 171.152 17.7512 171.683 19.3312C172.214 20.9113 172.795 22.6426 173.393 24.5094C173.991 26.3762 174.597 28.2962 175.194 30.3515H177.392C177.37 30.2829 177.359 30.2112 177.36 30.1391C177.359 30.0085 177.374 29.8783 177.406 29.7514C177.432 29.6319 177.478 29.4858 177.505 29.3504C177.561 29.233 177.603 29.109 177.628 28.9813C177.818 28.2935 178.019 27.5606 178.226 26.764C178.432 25.9673 178.668 25.1096 178.92 24.2412C179.172 23.3729 179.456 22.4647 179.684 21.5406C179.912 20.6165 180.201 19.7243 180.488 18.8134C180.775 17.9026 180.989 17.0661 181.254 16.2323C181.48 15.3454 181.742 14.5806 181.951 13.8822L187.159 30.3462H189.266C189.346 30.0036 189.507 29.3451 189.788 28.3519C190.07 27.3588 190.434 26.1479 190.911 24.5997C191.389 23.0516 191.938 21.2644 192.568 19.1799C193.198 17.0953 193.908 14.6656 194.677 12.0765C195.122 11.6436 195.481 11.3329 195.774 11.0674C196.066 10.8018 196.229 10.6425 196.347 10.5602V10.4115H191.225V10.5735ZM206.597 23.0941L204.018 16.5085L201.606 23.0941H206.597ZM211.743 28.2855L213.549 29.8496V30.0435H206.65V29.8496L208.671 28.3466L207.041 24.2465C205.208 24.2271 203.243 24.2271 201.145 24.2465L199.647 28.3466L201.633 29.8496V30.0435H196.334V29.8496L198.156 28.3466L203.592 14.1743H205.846L211.743 28.2855ZM264.201 28.7131C261.904 28.806 259.765 28.806 257.769 28.7131C257.733 26.663 257.733 24.6272 257.769 22.6055C258.929 22.5736 260.559 22.5523 262.719 22.5523L263.939 24.3262H264.121V19.5145H263.939L262.719 21.3229C259.902 21.3229 258.27 21.2963 257.734 21.2618C257.71 20.3881 257.691 19.4985 257.691 18.6063C257.691 17.7141 257.691 16.8324 257.71 15.8685C258.677 15.7941 259.685 15.7809 260.754 15.7809C261.824 15.7809 262.96 15.7809 264.121 15.7809L265.402 17.576H265.574V14.5115H253.271V14.6735L255.043 15.9375C255.104 19.557 255.104 23.7367 255.043 28.5511L253.271 29.8443V30.0461H265.884V26.594H265.699L264.201 28.7131ZM277.522 22.17C278.862 22.17 279.892 21.9044 280.591 21.2963C281.291 20.6882 281.663 19.8783 281.663 18.7922C281.664 18.3824 281.584 17.9764 281.427 17.5972C281.279 17.2224 281.046 16.8862 280.747 16.6147C280.433 16.3031 280.057 16.0606 279.642 15.903C279.187 15.7309 278.701 15.6479 278.214 15.6587H277.822C277.635 15.6587 277.442 15.6587 277.217 15.6853C276.992 15.7118 276.734 15.6853 276.485 15.7065C276.236 15.7278 275.989 15.7437 275.783 15.7437L275.756 22.1381C275.898 22.1551 276.042 22.1614 276.185 22.1567C276.319 22.1567 276.506 22.1567 276.691 22.1726H277.528L277.522 22.17ZM285.654 29.5894C285.756 29.6941 285.872 29.7835 286 29.8549V30.0514H282.422L278.75 23.9146C278.619 23.6958 278.435 23.5131 278.214 23.3835C277.966 23.2954 277.705 23.2505 277.442 23.2507H276.764C276.447 23.2507 276.115 23.28 275.74 23.2985L275.799 28.6254L277.57 29.8496V30.0461H271.154V29.8496L273.03 28.5537V15.996L271.258 14.6682V14.5115H278.554C279.413 14.4939 280.27 14.5949 281.1 14.8116C281.801 14.9854 282.465 15.2793 283.062 15.68C283.569 16.0453 283.996 16.5076 284.319 17.0396C284.614 17.5511 284.772 18.1288 284.778 18.7178C284.773 19.2726 284.636 19.8184 284.378 20.3111C284.115 20.7964 283.749 21.2201 283.306 21.5539C282.825 21.9283 282.281 22.2151 281.698 22.401C281.033 22.6108 280.342 22.7314 279.645 22.7595C280.119 22.8022 280.578 22.9511 280.985 23.195C281.361 23.4794 281.669 23.842 281.888 24.2572L284.362 28.0545C284.475 28.2237 284.604 28.3812 284.748 28.5245C284.893 28.7104 285.048 28.9388 285.212 29.1353C285.375 29.2814 285.544 29.446 285.681 29.5867L285.654 29.5894ZM240.717 21.044C242.083 19.7614 243.249 18.6753 244.201 17.8097C245.152 16.944 245.863 16.3279 246.364 15.9004L248.731 14.6709V14.5169H243.45V14.6709L244.255 15.8765C243.705 16.4713 243.129 17.005 242.579 17.5574C242.03 18.1097 241.446 18.6063 240.888 19.1188C240.331 19.6313 239.816 20.1226 239.301 20.574C238.787 21.0254 238.299 21.4742 237.833 21.8301C239.647 23.6305 241.716 25.8744 244.129 28.6254L243.448 29.847V30.0408H249.151V29.847L247.937 28.6254C244.549 25.1733 242.151 22.6745 240.7 21.044H240.717ZM237.843 15.9375L239.677 14.6709V14.5169H233.303V14.6709L235.109 15.9375C235.136 20.1252 235.136 24.297 235.109 28.5511L233.233 29.847V30.0435H239.703V29.847L237.827 28.5511C237.8 24.2545 237.8 20.0748 237.827 15.9375H237.843ZM227.597 28.644H224.479C223.488 28.644 222.603 28.6281 221.799 28.6281C221.745 24.3421 221.745 20.1544 221.799 15.9375L223.783 14.7027V14.5248H217.261V14.7027L219.049 15.9375C219.108 20.1252 219.108 24.2864 219.049 28.5511L217.261 29.847V30.0435H229.282V26.5754H229.049L227.597 28.644ZM139.605 24.7245C139.321 24.4882 139.069 23.9624 139.069 23.2401C139.103 22.506 139.293 21.7874 139.628 21.1318C139.963 20.4762 140.435 19.8986 141.013 19.4375C142.524 18.3142 143.913 18.2611 144.352 18.1097C143.454 18.131 142.937 17.5786 143.012 17.2308C143.031 17.1378 143.323 17.4193 143.816 17.4459C144.478 17.4777 144.966 17.2493 145.765 16.7236C145.993 16.5722 146.089 16.6758 146.06 16.8776C146.57 16.2937 146.896 15.5745 146.998 14.809C147.242 15.2099 147.949 15.4091 148.386 15.5073C148.694 15.5764 149.911 15.8313 150.12 15.8313C150.016 15.7649 148.992 15.3825 148.512 15.2099C148.244 15.117 148.014 15.0294 147.831 14.9444C147.67 14.8794 147.518 14.7947 147.378 14.6921C147.343 14.666 147.31 14.6376 147.279 14.6071C147.239 14.57 147.193 14.5275 147.15 14.4823C146.518 13.7266 145.978 12.8995 145.542 12.018C145.165 11.3083 144.91 10.5408 144.789 9.7476C144.755 9.58405 144.735 9.41791 144.73 9.25102C144.719 9.05854 144.728 8.86545 144.757 8.67478C144.776 8.56255 144.817 8.45512 144.878 8.35878C144.907 8.3053 144.943 8.2554 144.985 8.21007C145.078 8.10324 145.19 8.01338 145.314 7.94452C145.344 7.93014 145.376 7.922 145.408 7.92063C145.505 7.92063 145.234 8.18617 145.14 8.70399C144.961 9.58296 145.717 10.2973 145.968 10.5628C146.984 11.641 147.577 11.9145 148.075 12.6182C148.161 12.7403 148.075 12.7616 147.936 12.7616H147.874C147.625 12.7324 147.293 12.5757 147.408 12.7271C147.512 12.8576 147.641 12.9659 147.789 13.0454C147.936 13.1248 148.098 13.1737 148.265 13.1891L148.375 13.2104C148.498 13.2315 148.619 13.2617 148.737 13.3006C148.799 13.3245 148.852 13.3431 148.911 13.3697L149.035 13.4334C149.088 13.4568 149.137 13.4872 149.182 13.5237C149.212 13.5503 149.198 13.5742 149.091 13.5742H148.911H148.818C148.67 13.5874 148.509 13.6034 148.381 13.606C148.282 13.6114 148.182 13.6114 148.083 13.606C147.971 13.6051 147.859 13.59 147.751 13.5609C147.346 13.4493 146.915 13.2528 147.215 13.5104C147.25 13.5423 147.282 13.5715 147.317 13.5981C147.507 13.7888 147.76 13.9072 148.03 13.9326C148.13 13.939 148.231 13.9327 148.33 13.9141C148.426 13.8981 148.523 13.8742 148.678 13.845C148.84 13.8151 149.004 13.7947 149.169 13.7839C149.479 13.7553 149.791 13.7714 150.096 13.8317C150.128 13.8387 150.161 13.8387 150.193 13.8317C150.273 13.8052 150.219 13.6459 150.016 13.5662C149.919 13.5295 149.819 13.5002 149.718 13.4786C149.516 13.4478 149.328 13.3549 149.182 13.213L149.155 13.1865C149.124 13.1445 149.089 13.1054 149.051 13.0696C148.998 13.0226 148.936 12.9865 148.869 12.9634L148.812 12.9395L148.769 12.9156C148.72 12.8808 148.678 12.8354 148.649 12.7828C148.624 12.7269 148.603 12.6692 148.587 12.6102C148.557 12.5048 148.518 12.4019 148.472 12.3022C148.078 11.6356 147.81 10.9346 147.247 10.276C146.948 9.98957 146.667 9.6854 146.405 9.36521C146.309 9.18729 146.212 8.75445 146.33 8.73851C146.566 8.70665 147.255 9.98128 147.37 10.0822C147.432 10.1326 147.311 9.69715 147.236 9.44753C147.174 9.26476 147.097 9.08717 147.006 8.91643C146.875 8.66629 146.692 8.44638 146.47 8.27115C146.328 8.17304 146.181 8.08433 146.027 8.0056C145.947 7.95515 146.062 7.84627 146.48 8.0773C146.764 8.23397 146.893 8.24991 146.939 8.22335C146.732 7.97724 146.449 7.80475 146.135 7.73209C146.014 7.67898 146.569 7.42405 147.164 7.48513C147.653 7.54668 148.138 7.63534 148.617 7.75067C148.869 7.80644 148.646 7.5701 148.437 7.42936C148.181 7.2875 147.918 7.15897 147.649 7.04431C147.606 6.9912 148.185 7.00714 148.507 7.04431C148.716 7.07618 148.59 6.94606 148.322 6.84515C148.094 6.75752 147.821 6.76018 147.885 6.70441C147.979 6.65693 148.062 6.59135 148.129 6.51154C148.197 6.43173 148.248 6.3393 148.279 6.2397C148.357 5.92901 148.279 5.84404 148.319 5.78827C148.359 5.7325 148.743 6.16004 149.413 6.94872C150.101 7.77563 150.674 8.69017 151.117 9.66793C151.628 10.7961 151.951 11.9986 152.074 13.2289C152.074 13.2289 152.104 13.3113 152.179 13.1626C152.514 12.5943 152.782 11.3037 152.935 10.4832C152.967 10.2155 152.899 9.94537 152.744 9.7237C152.734 9.70717 152.724 9.69121 152.712 9.6759C152.503 9.41035 152.666 9.12621 152.691 8.79959C152.715 8.47297 152.455 8.40127 152.369 8.24991C152.219 7.98436 152.264 7.89407 152.264 7.89407C152.323 7.89407 152.49 7.86752 152.833 7.85158C153.127 7.83423 153.418 7.91974 153.656 8.09323C153.824 8.23663 154.025 8.69603 154.516 8.66416C154.656 8.66416 154.794 8.69628 154.92 8.75801C155.045 8.81974 155.155 8.9094 155.24 9.02C155.328 9.1426 155.445 9.24269 155.58 9.3121C155.531 9.36532 155.492 9.42768 155.468 9.49559C155.443 9.5635 155.432 9.63561 155.435 9.70777C155.451 9.84152 155.507 9.96747 155.596 10.0689C155.642 10.1273 155.682 10.1486 155.695 10.0689C155.698 10.046 155.698 10.0228 155.695 9.99987C155.69 9.92739 155.69 9.8546 155.695 9.78212C155.717 9.54578 155.816 9.51657 155.88 9.55906C155.914 9.59079 155.94 9.6299 155.955 9.67325C155.977 9.71308 155.998 9.75822 156.022 9.79805C156.065 9.87436 156.115 9.94639 156.172 10.0131C156.196 10.0433 156.222 10.0717 156.25 10.0981C156.494 10.3171 156.782 10.4835 157.094 10.5867C157.169 10.608 157.202 10.5867 157.159 10.5602C156.652 10.2043 156.548 10.1459 156.422 9.96535C156.389 9.92021 156.317 9.81133 156.288 9.75822C156.258 9.70511 156.204 9.5803 156.129 9.43691C156.198 9.42523 156.263 9.39594 156.317 9.35193C156.373 9.3121 156.381 9.28023 156.349 9.25899C156.273 9.23346 156.192 9.22796 156.113 9.24306C156.072 9.24837 156.031 9.24837 155.99 9.24306H155.953C155.922 9.24079 155.891 9.23545 155.861 9.22712H155.818C155.599 9.05717 155.446 9.10232 155.352 8.96158C155.258 8.82083 155.457 8.89784 155.596 8.8049C155.735 8.71196 155.424 8.35081 155.328 8.51014C155.186 8.74383 155.13 8.47562 155.143 8.3216C155.168 8.17523 155.149 8.02483 155.089 7.88876L155.076 7.8622C155.057 7.80644 155.156 7.75598 155.205 7.7374C155.253 7.71881 155.269 7.7374 155.293 7.76926C155.342 7.83042 155.401 7.88257 155.467 7.92328H155.486C155.486 7.92328 155.486 7.92328 155.508 7.92328H155.524C155.559 7.93617 155.596 7.94508 155.634 7.94983H155.666C155.718 7.95369 155.771 7.95369 155.824 7.94983C155.858 7.94792 155.892 7.93982 155.923 7.92594L156.001 7.89141C156.04 7.87071 156.075 7.84172 156.103 7.80644C156.116 7.77723 156.148 7.7135 156.084 7.68429C156.053 7.67882 156.021 7.67882 155.99 7.68429C155.92 7.68818 155.849 7.68818 155.778 7.68429H155.741C155.713 7.68057 155.687 7.66853 155.666 7.64977L155.601 7.54886C155.578 7.51848 155.552 7.49006 155.524 7.46388C155.381 7.34253 155.222 7.24071 155.052 7.16116C154.862 7.06936 154.682 6.9581 154.516 6.82922C154.429 6.74389 154.364 6.63919 154.326 6.52384C154.261 6.38044 154.21 6.23705 154.141 6.11755C154.071 5.99805 153.953 5.91839 154.028 5.86793C154.103 5.81748 154.296 5.86793 154.395 5.96619C154.433 6.01187 154.467 6.06074 154.497 6.11224C154.497 6.11224 154.516 6.11224 154.524 6.11224C154.537 6.01983 154.544 5.92671 154.545 5.83341C154.562 5.70784 154.606 5.58733 154.674 5.48023C154.69 5.48023 154.674 5.57318 154.647 5.67143C154.647 5.70595 154.647 5.73782 154.628 5.76703C154.627 5.77851 154.627 5.79007 154.628 5.80155C154.624 5.83947 154.624 5.87781 154.628 5.91573C154.666 6.09365 154.706 6.40434 154.714 6.44683C154.722 6.48932 154.76 6.56367 154.84 6.55039C154.921 6.53712 155.022 6.39107 155.022 6.39107C155.028 6.40811 155.038 6.42302 155.053 6.43355C155.067 6.44409 155.085 6.44968 155.103 6.44949C155.116 6.44923 155.13 6.44628 155.142 6.44081C155.155 6.43533 155.166 6.42745 155.175 6.41762C155.212 6.36887 155.236 6.31257 155.248 6.25298C155.248 6.22111 155.248 6.19456 155.248 6.17066C155.248 6.14676 155.285 6.13879 155.296 6.11489L155.328 6.03789C155.342 5.99204 155.342 5.943 155.328 5.89714C155.321 5.87865 155.311 5.86153 155.299 5.84669C155.226 5.76437 155.17 5.82279 155.17 5.82279C155.188 5.75226 155.188 5.67822 155.17 5.6077C155.146 5.50944 155.02 5.54397 155.02 5.54397C155.034 5.48643 155.034 5.42624 155.02 5.3687C155.001 5.27045 154.966 5.20672 154.883 5.21203C154.854 5.21564 154.825 5.22277 154.797 5.23327V5.21734C154.854 5.12971 155.274 5.1483 155.355 5.15361C155.403 5.15446 155.449 5.17035 155.487 5.199C155.525 5.22764 155.553 5.26755 155.567 5.31294C155.591 5.37401 155.617 5.43243 155.639 5.47492C155.545 5.47492 155.451 5.47492 155.419 5.47492C155.387 5.47492 155.451 5.51476 155.599 5.53069H155.695C155.733 5.54209 155.767 5.56156 155.797 5.58772C155.826 5.61388 155.849 5.64609 155.864 5.68205C155.912 5.89339 155.977 6.10037 156.06 6.30078C156.105 6.40007 156.156 6.49671 156.212 6.59023C156.273 6.64788 156.321 6.71756 156.352 6.7947C156.365 6.83188 156.381 6.88233 156.403 6.95403C156.424 7.02573 156.47 7.0868 156.51 7.10274L156.585 7.12929C156.607 7.13359 156.627 7.14422 156.643 7.15981C156.658 7.17541 156.669 7.19529 156.673 7.21692V7.2302C156.673 7.24348 156.674 7.25675 156.687 7.27003C156.714 7.33111 156.743 7.34173 156.786 7.33642C156.824 7.32418 156.864 7.31878 156.904 7.32049C157.156 7.34704 157.151 7.49575 157.172 7.69756C157.172 7.72146 157.172 7.75598 157.196 7.79316C157.334 8.12146 157.523 8.42618 157.756 8.69603C158.292 9.31475 158.895 10.2362 158.828 10.6213C158.791 10.8523 158.333 11.0939 158.113 11.1709C157.893 11.2479 156.665 11.3196 155.296 11.1205C154.556 11.0374 153.826 10.8917 153.111 10.685C153.041 11.3611 152.929 12.0324 152.776 12.6952C152.637 13.2263 152.374 14.0521 152.289 14.4239C152.255 14.4169 152.222 14.408 152.189 14.3974L152.05 14.3496L151.704 14.2407C151.506 14.1854 151.303 14.1445 151.099 14.1185C150.775 14.0737 150.449 14.0551 150.123 14.0628C149.922 14.0682 149.723 14.0949 149.528 14.1424C149.204 14.2194 149.313 14.3549 149.879 14.408C150.204 14.4333 150.532 14.4226 150.855 14.3761C150.992 14.3666 151.13 14.3666 151.267 14.3761C151.453 14.3874 151.638 14.414 151.82 14.4558C151.889 14.4691 152.232 14.5753 152.232 14.5753L152.372 14.6124C152.742 14.7134 152.889 14.7558 153.216 14.8222C153.31 14.8408 153.404 14.8594 153.484 14.8727L153.696 14.8966C153.848 14.9125 153.991 14.9231 154.114 14.9285C154.235 14.9403 154.357 14.9403 154.478 14.9285C154.507 14.9219 154.536 14.9219 154.564 14.9285C154.596 14.9444 154.591 14.9762 154.564 15.0187C154.53 15.0519 154.491 15.0804 154.449 15.1037L154.285 15.1887L154.1 15.2843C153.981 15.3475 153.866 15.4194 153.757 15.4994C153.623 15.6179 153.519 15.7664 153.454 15.9327C153.39 16.099 153.366 16.2781 153.385 16.4554C153.446 16.8616 153.779 16.7528 153.714 16.936C153.694 16.9969 153.652 17.0484 153.597 17.0811C153.541 17.1138 153.475 17.1255 153.412 17.1139C153.258 17.0923 153.105 17.0603 152.956 17.0183C152.983 16.8829 153.095 16.8112 152.868 16.6359C152.728 16.5271 152.396 16.5058 152.562 16.7554C152.598 16.8132 152.639 16.8674 152.685 16.9174C152.685 16.9174 152.701 16.9333 152.685 16.936H152.666L152.605 16.9148C152.2 16.7475 152.187 16.7979 152.069 16.6492C152.035 16.6055 152.009 16.556 151.994 16.5032C151.982 16.4595 151.963 16.4181 151.937 16.381C151.925 16.3582 151.904 16.3407 151.88 16.3319C151.855 16.3231 151.828 16.3235 151.803 16.3332C151.769 16.3543 151.738 16.3793 151.71 16.4076C151.662 16.4421 151.606 16.4635 151.547 16.4696C151.488 16.4756 151.429 16.4661 151.375 16.4421C151.35 16.4319 151.324 16.4247 151.297 16.4208C151.332 16.4421 151.664 16.5988 151.932 16.7236C151.884 17.0661 151.771 17.7858 151.664 17.8734C151.479 18.0327 151.101 17.2254 150.994 16.9838C150.993 16.975 150.993 16.9661 150.994 16.9572L150.956 17.0316C150.935 17.0714 150.911 17.1139 150.884 17.1564C150.743 17.3648 150.578 17.5556 150.391 17.7247C150.112 17.6756 149.83 17.6534 149.547 17.6583C147.909 17.6583 146.062 18.686 145.363 18.9276C145.271 18.9618 145.182 19.0008 145.095 19.0445C145.541 19.0156 145.981 18.9262 146.403 18.7789C146.722 18.6727 146.872 18.6222 147.491 18.3939L147.654 18.3381L147.544 18.4602C147.183 18.8453 146.992 19.225 146.097 19.8039C145.614 20.1059 145.094 20.3468 144.551 20.5209C144.476 20.5475 144.398 20.566 144.325 20.5899C142.339 21.1848 141.307 21.121 140.305 21.6893C139.683 22.0345 139.404 22.5683 139.471 23.0702C139.496 22.8601 139.567 22.6581 139.679 22.4785C139.792 22.299 139.943 22.1464 140.123 22.0319C140.714 21.681 141.372 21.4533 142.055 21.3627C141.179 21.9628 139.522 23.1684 139.667 24.7166C139.667 24.7484 139.654 24.7617 139.611 24.7166L139.605 24.7245ZM151.058 12.7669C151.007 12.7879 150.965 12.8264 150.94 12.8756C150.915 12.9247 150.909 12.981 150.923 13.0343C150.937 13.0876 150.969 13.1342 151.015 13.1655C151.06 13.1969 151.116 13.2109 151.171 13.205C151.222 13.1841 151.264 13.1455 151.289 13.0964C151.314 13.0472 151.32 12.9909 151.306 12.9376C151.293 12.8844 151.26 12.8378 151.214 12.8064C151.169 12.7751 151.113 12.761 151.058 12.7669ZM150.761 11.8879C150.813 11.8687 150.855 11.8303 150.879 11.7808C150.903 11.7313 150.907 11.6745 150.889 11.6224C150.874 11.5885 150.85 11.5596 150.819 11.5391C150.787 11.5186 150.751 11.5074 150.714 11.5068C150.676 11.5062 150.639 11.5162 150.608 11.5357C150.576 11.5552 150.55 11.5833 150.534 11.6167C150.518 11.6501 150.512 11.6874 150.516 11.7242C150.521 11.761 150.536 11.7957 150.56 11.8243C150.584 11.8528 150.615 11.874 150.651 11.8853C150.687 11.8965 150.725 11.8975 150.761 11.8879ZM148.563 8.78366C148.536 8.85536 149.458 9.44487 150.241 10.2442C150.509 10.5097 150.723 10.8018 150.793 10.8788C150.793 10.8788 151.002 11.1178 150.774 10.6637C150.573 10.3393 150.332 10.0413 150.056 9.77681C149.536 9.24571 149.131 8.91378 149.096 8.86067C149.035 8.7571 149.429 8.44376 149.348 8.41986C149.068 8.49715 148.803 8.62009 148.563 8.78366ZM150.337 6.3353C150.289 6.28156 150.234 6.23425 150.174 6.19456C150.139 6.19456 149.689 6.46011 149.938 6.44683H149.951C150.045 6.4309 150.182 6.407 150.284 6.39372C150.313 6.39372 150.364 6.37513 150.337 6.3353ZM152.401 9.78743C152.436 9.56172 152.031 9.58561 152.088 9.73963C152.144 9.89365 152.165 9.95473 152.165 9.95473C152.192 9.96351 152.221 9.96588 152.249 9.96166C152.277 9.95744 152.303 9.94675 152.326 9.93044C152.349 9.91414 152.368 9.89269 152.381 9.86784C152.394 9.84299 152.401 9.81544 152.401 9.78743ZM148.416 2.45564C148.416 2.82209 148.952 2.98673 149.238 3.00267C149.311 3.00267 149.447 3.00267 149.506 3.03719C149.536 3.12482 149.458 3.24431 149.142 3.20183C149.089 3.19079 149.033 3.19203 148.98 3.20546C148.928 3.21889 148.879 3.24414 148.837 3.27928C148.796 3.31442 148.763 3.35851 148.742 3.40815C148.72 3.4578 148.71 3.51167 148.713 3.56563C148.689 3.9374 148.855 4.20295 148.831 4.38086C148.815 4.51895 148.713 4.52426 148.659 4.53488C148.624 4.5353 148.59 4.54252 148.558 4.55612C148.512 4.58534 148.582 4.74732 148.702 4.77387C148.751 4.78742 148.802 4.7928 148.852 4.78981C148.968 4.78981 149.008 4.72873 149.12 4.72608C149.192 4.73322 149.262 4.75206 149.327 4.78184C149.436 4.83057 149.535 4.89901 149.619 4.98366C149.689 5.06598 149.737 5.20672 149.783 5.21734C149.828 5.22796 149.975 5.05536 149.943 5.03146C149.904 5.034 149.866 5.0271 149.83 5.01137C149.795 4.99563 149.764 4.97153 149.74 4.94117C149.691 4.85885 149.705 4.73139 149.651 4.5933C149.594 4.48447 149.555 4.36691 149.536 4.24543C149.533 4.19279 149.542 4.14021 149.562 4.09132C149.582 4.04243 149.612 3.99841 149.651 3.96229C149.69 3.92618 149.736 3.89883 149.786 3.88215C149.837 3.86548 149.89 3.85986 149.943 3.8657C150.067 3.88694 150.115 4.03299 150.136 4.17373C150.127 4.15745 150.114 4.1432 150.099 4.13181C150.084 4.12042 150.066 4.1121 150.048 4.10735C150.028 4.1011 150.006 4.10026 149.985 4.10492C149.965 4.10959 149.945 4.11958 149.93 4.1339C149.906 4.16842 149.97 4.19763 150 4.22153C150.05 4.2625 150.09 4.31546 150.115 4.37555C150.14 4.42999 150.16 4.48696 150.174 4.5455C150.174 4.59596 150.174 4.61986 150.195 4.67031C150.217 4.81371 150.219 4.83229 150.252 4.85088C150.284 4.86947 150.541 5.0766 150.629 5.07129C150.718 5.06598 150.745 5.05536 150.723 5.03146C150.619 4.85624 150.586 4.64817 150.632 4.44991C150.655 4.3596 150.683 4.27089 150.718 4.18436C150.734 4.13921 150.809 4.12859 150.884 4.13656C150.954 4.14266 151.021 4.16348 151.082 4.19763L151.179 4.25605C151.224 4.28792 151.267 4.31979 151.262 4.34634C151.259 4.36012 151.253 4.37292 151.243 4.38352C151.243 4.38352 151.225 4.43397 151.243 4.43928C151.273 4.46611 151.304 4.49096 151.337 4.51364L151.361 4.54019C151.374 4.55795 151.383 4.57773 151.388 4.59861C151.388 4.6411 151.407 4.65438 151.471 4.69155C151.612 4.74315 151.763 4.76398 151.913 4.75263C151.933 4.75532 151.953 4.75532 151.972 4.75263C152.037 4.75263 152.2 4.76856 152.24 4.81105C152.279 4.95928 152.287 5.11395 152.262 5.26514C152.267 5.38363 152.257 5.50231 152.232 5.61832C152.223 5.64509 152.205 5.66813 152.181 5.68395C152.158 5.69976 152.129 5.70749 152.101 5.70595C152.051 5.69937 152.001 5.69937 151.951 5.70595C151.897 5.70595 151.87 5.79889 151.849 5.88121C151.839 5.92041 151.819 5.95674 151.793 5.98743C151.771 6.00479 151.75 6.02341 151.731 6.0432C151.696 6.08454 151.674 6.13549 151.669 6.18925C151.666 6.22977 151.654 6.26896 151.632 6.30343C151.612 6.3236 151.593 6.34488 151.576 6.36717C151.518 6.44315 151.493 6.53856 151.506 6.63271C151.508 6.67683 151.499 6.72082 151.48 6.7607C151.461 6.80058 151.432 6.83508 151.396 6.86109C151.325 6.9 151.245 6.91862 151.164 6.91487C151.083 6.91112 151.005 6.88514 150.938 6.83984C150.868 6.79735 150.798 6.75221 150.726 6.6991C150.726 6.6991 150.699 6.68317 150.691 6.6991C150.683 6.71503 150.721 6.76549 150.804 6.85312C150.845 6.89907 150.891 6.94087 150.94 6.97793C151.345 7.24348 151.707 7.21692 151.771 6.97793C151.811 6.81063 152.004 6.6513 152.238 6.31671C152.471 5.98212 152.629 5.93432 152.8 5.53865C152.863 5.32667 152.9 5.10843 152.913 4.88806C152.715 4.82141 152.533 4.71572 152.377 4.57737C152.257 4.4678 152.148 4.34782 152.05 4.21888C151.88 3.96339 151.693 3.71943 151.49 3.48862C151.377 3.39176 151.257 3.30302 151.131 3.22307C151.08 3.18589 151.053 3.15137 151.074 3.13544C151.096 3.11951 151.131 3.13544 151.227 3.16465C151.614 3.30133 151.954 3.54341 152.208 3.86304C152.377 4.07814 152.428 4.2295 152.586 4.41804C152.701 4.564 152.85 4.68054 153.02 4.75794C153.356 4.90629 153.729 4.95428 154.092 4.89603C154.344 4.82698 154.427 4.74997 154.411 4.67297C154.433 4.69729 154.456 4.72034 154.481 4.74201C154.516 4.77653 154.553 4.8084 154.591 4.84026L154.634 4.86151C154.69 4.88275 154.749 4.86151 154.762 4.88541C154.765 4.90087 154.763 4.91665 154.758 4.93143C154.753 4.94621 154.744 4.95956 154.733 4.97038C154.741 4.99239 154.751 5.0137 154.762 5.03411C154.781 5.07926 154.953 5.09519 154.953 5.09519C154.953 5.09519 155.167 5.11378 155.159 5.09519C155.151 5.0766 155.175 5.0527 154.998 4.77919C154.82 4.62497 154.633 4.48132 154.438 4.349C154.35 4.28527 154.272 4.349 154.288 4.44459C154.296 4.49752 154.315 4.54818 154.344 4.5933C154.228 4.51644 154.096 4.46485 153.958 4.44194C153.732 4.42525 153.518 4.33144 153.353 4.17639C153.315 4.14984 153.32 4.12328 153.32 4.12328C153.52 3.78337 153.75 3.46246 154.009 3.16465C154.301 2.8752 154.591 2.6787 154.65 2.49547C154.709 2.31224 154.382 1.27129 153.216 0.636628C152.05 0.00196706 151.208 -0.0511426 150.9 0.0285219C150.592 0.108187 150.549 0.259549 150.538 0.432156C150.522 0.722788 150.487 1.01201 150.431 1.29784C150.379 1.45952 150.343 1.62583 150.324 1.79442C150.343 1.86935 150.384 1.93692 150.442 1.98827C150.503 2.06528 151.064 2.51937 151.179 2.69463C151.294 2.86989 151.093 2.79554 150.981 2.71322C150.729 2.54337 150.459 2.40092 150.176 2.28834C149.842 2.14991 149.485 2.07254 149.123 2.05997C148.801 2.05997 148.402 2.20336 148.402 2.45564H148.416ZM151.618 7.55151C151.618 7.59666 151.581 7.56479 151.557 7.55151C151.52 7.51415 151.474 7.48751 151.423 7.4745C151.31 7.45591 151.227 7.58338 151.09 7.44529C150.822 7.15319 150.49 6.95934 150.458 7.12132C150.427 7.24246 150.427 7.3693 150.458 7.49044C150.522 7.80909 150.595 8.10385 150.595 8.10385C150.595 8.10385 150.627 8.22335 150.785 8.15165C150.887 8.10521 150.995 8.07304 151.107 8.05606C151.144 8.05606 151.184 8.11979 151.238 8.16227C151.274 8.19414 151.317 8.21588 151.365 8.22522C151.412 8.23457 151.461 8.23117 151.506 8.21538C151.57 8.18883 151.629 8.11979 151.643 8.12775C151.798 8.20211 152.141 8.47297 152.045 8.19414C151.991 8.07768 151.965 7.95034 151.969 7.82221C151.973 7.69407 152.007 7.56867 152.069 7.45591C152.122 7.37625 152.163 7.28331 152.106 7.26737C152.014 7.27465 151.924 7.29616 151.838 7.33111C151.754 7.36124 151.679 7.41248 151.621 7.47981C151.61 7.50714 151.61 7.53747 151.621 7.56479L151.618 7.55151ZM152.329 10.7779C152.391 10.7651 152.448 10.7321 152.49 10.6841C152.531 10.636 152.556 10.5757 152.559 10.5124C152.559 10.2999 152.227 10.369 152.291 10.5124C152.329 10.5955 152.344 10.6872 152.334 10.7779H152.329ZM154.838 5.96884C154.838 5.99805 154.88 5.93432 154.905 5.852C154.929 5.76968 154.958 5.6794 154.931 5.68205C154.905 5.68471 154.896 5.68205 154.864 5.75109C154.842 5.82145 154.833 5.89525 154.838 5.96884ZM150.863 5.71923C150.897 5.71923 150.897 5.65815 150.975 5.6077C151.053 5.55724 151.171 5.53865 151.12 5.52007C151.046 5.50404 150.969 5.50957 150.897 5.536C150.82 5.5838 150.828 5.71126 150.863 5.71923ZM142.602 31.4004C142.811 31.4323 142.749 31.4562 142.677 31.5491C142.605 31.6421 142.38 31.8598 141.996 32.3325C141.728 32.6804 140.554 34.1913 140.211 34.988C140.076 35.2679 139.985 35.5672 139.943 35.8749C139.943 35.8935 139.943 35.9068 139.943 35.9201C139.916 35.8958 139.885 35.8753 139.852 35.859C139.812 35.8399 139.768 35.8318 139.724 35.8355C139.681 35.8393 139.639 35.8547 139.603 35.8802C139.49 35.944 139.538 36.013 139.694 36.0422C139.849 36.0714 139.812 36.2175 139.932 36.1537C139.954 36.1452 139.972 36.1306 139.985 36.1116C139.998 36.0927 140.005 36.0704 140.005 36.0475C140.005 36.021 140.005 36.0475 140.005 36.0475C140.033 36.0874 140.056 36.1313 140.072 36.1776C140.084 36.2353 140.073 36.2954 140.041 36.345C140.009 36.3946 139.958 36.4299 139.9 36.4432H139.887C139.878 36.8685 139.941 37.2922 140.074 37.6966C140.181 38.0318 140.345 38.3462 140.56 38.626C140.815 38.7696 141.054 38.9396 141.273 39.1332C141.335 39.202 141.374 39.2881 141.385 39.3798C141.396 39.4715 141.378 39.5644 141.334 39.6457C141.334 39.6457 141.466 39.6909 141.372 39.89C141.342 39.9537 141.219 39.9856 140.908 39.9989C140.398 40.0112 139.891 39.9208 139.418 39.7333C138.847 39.505 138.643 39.343 138.402 38.8039C138.161 38.2649 137.957 37.7258 137.957 37.7258H137.595C137.49 37.5571 137.4 37.3793 137.327 37.1947C137.224 36.9298 137.224 36.6364 137.327 36.3715L137.357 36.3051C137.34 36.0999 137.381 35.8941 137.475 35.7103C137.475 35.6917 137.475 35.7103 137.475 35.7103C137.509 35.8537 137.657 35.9307 137.743 35.8324C137.83 35.7194 137.931 35.6169 138.043 35.5271C138.206 35.4235 138.18 35.3598 138.115 35.304C138.072 35.2774 138.024 35.2597 137.974 35.2519C137.924 35.2442 137.872 35.2465 137.823 35.2588C137.804 35.2588 137.823 35.2588 137.823 35.2429L137.965 35.1128C138.035 35.0215 138.09 34.9203 138.129 34.8127C138.219 34.5615 138.291 34.3042 138.343 34.0426C138.456 33.5354 138.753 32.5237 138.911 32.0909C139.113 31.5684 139.383 31.0746 139.715 30.6224C139.777 30.5427 139.758 30.6489 139.798 30.718C139.825 30.7649 139.862 30.8056 139.906 30.8375C139.932 30.8587 140.099 30.9623 140.069 31.0207C139.852 31.3244 139.66 31.645 139.496 31.9793C139.356 32.2688 138.783 33.6071 138.691 34.3985C138.6 35.1898 138.758 34.7437 138.836 34.4542C138.914 34.1648 139.246 33.315 139.437 32.8609C139.627 32.4069 140.203 31.4429 140.294 31.2677C140.385 31.0924 140.423 31.1535 140.511 31.1906C140.751 31.2817 141 31.3485 141.254 31.3898C141.699 31.4326 142.148 31.4326 142.594 31.3898L142.602 31.4004ZM138.641 38.1852C138.775 38.0312 138.726 37.7975 138.533 37.5505C138.34 37.3036 138.161 37.2133 138.147 37.0194C138.134 36.8256 138.147 36.5946 138.005 36.7167C138.005 36.7167 137.952 36.7406 137.954 37.0062C137.957 37.2717 138.222 37.5373 138.303 37.7258C138.383 37.9143 138.507 38.3419 138.641 38.1905V38.1852ZM139.788 38.9394C139.765 38.8977 139.734 38.8617 139.695 38.834C139.657 38.8064 139.612 38.7879 139.565 38.78C139.421 38.78 139.236 38.8862 139.38 38.9978C139.525 39.1093 139.745 39.1252 139.882 39.2102C139.961 39.2614 140.055 39.2848 140.15 39.2766C140.172 39.2813 140.194 39.2813 140.217 39.2766C140.238 39.2766 140.233 39.2527 140.217 39.2421C140.146 39.224 140.077 39.1973 140.013 39.1624C139.929 39.1099 139.86 39.0379 139.812 38.9526L139.788 38.9394ZM139.335 38.6685C139.565 38.6685 139.726 38.5516 139.52 38.5065C139.451 38.4905 139.379 38.4895 139.309 38.5037C139.24 38.5179 139.175 38.547 139.118 38.5888C138.973 38.7216 139.005 38.7906 139.064 38.788C139.195 38.788 139.185 38.6685 139.332 38.6685H139.335ZM155.006 16.9466C155.177 16.9357 155.344 16.8981 155.502 16.8351C155.671 16.7315 155.743 16.7156 155.851 16.6439C155.891 16.6197 155.925 16.5864 155.95 16.5467C155.976 16.5071 155.991 16.4621 155.995 16.4155C155.995 16.3465 156.03 16.3226 156.137 16.2801C156.176 16.2658 156.211 16.2428 156.24 16.2128C156.268 16.1829 156.289 16.1468 156.301 16.1075C156.333 16.0278 156.352 15.9614 156.352 15.9614C156.352 15.9614 156.384 15.8977 156.515 15.8791C156.647 15.8605 156.816 15.7995 156.808 15.6507C156.8 15.5594 156.779 15.4698 156.743 15.3852C156.711 15.4231 156.668 15.45 156.62 15.4619C156.572 15.4739 156.521 15.4703 156.475 15.4516C156.28 15.3799 156.154 15.3029 156.065 15.2737C155.977 15.2445 155.829 15.2285 155.883 15.3401C155.936 15.4516 155.958 15.502 155.883 15.579C155.849 15.6051 155.813 15.6283 155.776 15.6481C155.639 15.7065 155.601 15.8048 155.615 15.8526C155.626 15.8863 155.627 15.9225 155.618 15.9569C155.609 15.9912 155.59 16.0223 155.564 16.0464C155.492 16.1048 155.408 16.1765 155.414 16.2589C155.419 16.3412 155.392 16.3837 155.301 16.4474C155.21 16.5111 155.103 16.5217 154.765 16.551C154.582 16.5785 154.396 16.5508 154.229 16.4713C154.207 16.4605 154.183 16.455 154.159 16.4552C154.135 16.4554 154.111 16.4614 154.09 16.4725C154.068 16.4837 154.05 16.4998 154.036 16.5194C154.022 16.539 154.013 16.5617 154.009 16.5855C154.009 16.6731 154.009 16.6997 154.103 16.7129C154.197 16.7262 154.205 16.7953 154.087 16.8192C153.969 16.8431 154.205 16.9785 154.32 17.005H154.366C153.83 18.1283 147.351 30.8136 147.306 30.9278C147.299 30.9434 147.298 30.961 147.304 30.9772C147.309 30.9934 147.32 31.007 147.335 31.0154C147.349 31.0279 147.367 31.0349 147.385 31.0349C147.403 31.0349 147.421 31.0279 147.435 31.0154C147.496 30.9278 155.006 16.9413 155.006 16.9413V16.9466ZM155.457 14.8833C155.43 14.9763 155.674 14.7771 155.888 14.7771C155.969 14.7829 156.047 14.8045 156.119 14.8408L156.231 14.631C156.389 14.6258 156.538 14.5586 156.646 14.4443C156.754 14.33 156.812 14.178 156.806 14.0216C156.801 13.8653 156.733 13.7174 156.618 13.6106C156.502 13.5038 156.349 13.4467 156.191 13.452C156.063 13.4526 155.938 13.4935 155.835 13.5688C155.835 13.5688 155.816 13.5874 155.859 13.5688C155.911 13.5485 155.97 13.5485 156.022 13.5688C156.078 13.6299 155.955 13.6485 155.95 13.7786C155.953 13.8013 155.948 13.8242 155.936 13.8439C155.925 13.8636 155.907 13.8789 155.885 13.8875C155.863 13.8941 155.839 13.8952 155.815 13.8905C155.792 13.8859 155.77 13.8758 155.751 13.8609C155.734 13.8465 155.719 13.8283 155.71 13.8076C155.7 13.7869 155.695 13.7643 155.695 13.7414C155.695 13.7149 155.695 13.7229 155.674 13.7414C155.616 13.8348 155.585 13.9424 155.585 14.0521C155.585 14.1623 155.616 14.2702 155.676 14.3628C155.591 14.5514 155.467 14.8329 155.449 14.8939L155.457 14.8833ZM161.302 36.2308C161.34 36.2308 161.503 36.3104 161.479 36.422C161.233 37.0883 160.781 37.6607 160.187 38.0577C159.651 38.3498 158.847 38.4454 158.434 38.5888L158.191 38.6844L158.274 39.0907C158.112 39.2264 157.932 39.3382 157.738 39.4227C157.544 39.5222 157.34 39.6015 157.129 39.659L156.778 39.2872C156.543 39.0844 156.343 38.8449 156.186 38.5782C156.144 38.5037 156.11 38.4254 156.084 38.3445C156.062 38.2963 156.043 38.2466 156.028 38.1958C155.947 37.9648 155.936 37.8426 155.91 37.7762C155.883 37.7099 155.76 37.6355 155.717 37.5107C155.694 37.4508 155.694 37.3848 155.717 37.3248C155.717 37.2876 155.751 37.2531 155.768 37.2159C155.859 37.0088 155.69 37.0008 155.642 36.9902C155.607 36.9763 155.576 36.9555 155.55 36.9291C155.518 36.8829 155.495 36.8307 155.483 36.7755C155.471 36.7203 155.47 36.6633 155.481 36.6078C155.43 36.5282 155.368 36.4405 155.299 36.3423L155.178 36.1909C154.67 35.6235 154.208 35.018 153.795 34.3799C153.437 33.8583 153.156 33.2887 152.961 32.6883C152.961 32.6883 153.16 32.5742 153.229 32.5396C153.299 32.5051 153.404 32.5396 153.481 32.6618C153.504 32.7003 153.522 32.7413 153.535 32.7839C153.536 32.7998 153.536 32.8158 153.535 32.8317C153.596 33.0963 153.686 33.3535 153.803 33.5992C153.938 33.9482 154.105 34.2842 154.301 34.6029C154.695 35.1565 155.138 35.6737 155.626 36.1484C155.84 36.3556 155.371 35.689 154.998 35.1181C154.535 34.3887 154.164 33.6056 153.894 32.7866C153.894 32.7653 153.878 32.7441 153.873 32.7255C153.845 32.6524 153.812 32.5814 153.773 32.5131C153.751 32.4813 153.719 32.4572 153.682 32.444C153.629 32.4175 153.58 32.4069 153.615 32.3723C153.65 32.3378 153.814 32.2661 154.063 32.0802C154.39 31.8147 154.476 31.419 154.655 30.9968C154.719 30.8479 154.79 30.7025 154.87 30.5613C154.848 30.2957 154.907 29.9373 154.947 30.0302C154.947 30.0541 155.009 30.2214 155.03 30.2957V30.3409C155.055 30.4259 155.071 30.4923 155.071 30.4923C155.326 31.4699 155.634 32.4334 155.993 33.3788C156.312 34.2646 156.693 35.1271 157.135 35.9599C157.193 36.0418 157.257 36.119 157.327 36.1909C157.416 36.1922 157.502 36.215 157.579 36.2573C157.612 36.2761 157.637 36.3052 157.651 36.3399C157.664 36.3746 157.666 36.4129 157.655 36.4485C157.779 36.5193 157.914 36.572 158.054 36.6052C158.745 36.7778 159.316 36.8707 159.785 36.7326L159.943 36.6769C159.965 36.6769 159.976 36.6636 159.943 36.6769C159.922 36.6769 159.855 36.7512 159.809 36.7937C159.7 36.8981 159.568 36.9763 159.424 37.0223C159.279 37.0683 159.126 37.081 158.976 37.0593C158.957 37.0593 158.976 37.0593 158.976 37.0779C159.204 37.2876 159.75 37.1283 159.906 37.0115C160.061 36.8946 160.01 36.9079 160.209 36.9769C160.265 36.9982 160.297 36.9929 160.313 36.9769C160.372 36.953 160.378 36.7326 160.415 36.56C160.442 36.4445 160.499 36.3382 160.581 36.252C160.669 36.2046 160.768 36.1822 160.867 36.1874C160.966 36.1926 161.062 36.225 161.144 36.2812C161.161 36.2634 161.182 36.2494 161.205 36.2403C161.229 36.2311 161.253 36.227 161.278 36.2281L161.302 36.2308ZM156.529 38.3127C156.582 38.2755 156.475 38.2383 156.478 37.8931C156.478 37.8931 156.521 37.6913 156.403 37.6275C156.285 37.5638 156.087 37.6514 156.105 37.7656C156.12 37.8857 156.15 38.0034 156.194 38.1162C156.296 38.3419 156.462 38.3551 156.529 38.318V38.3127ZM158.405 38.2569C158.528 38.1985 158.536 38.1215 158.507 38.1294C158.35 38.1945 158.183 38.2331 158.014 38.2436C157.772 38.2436 157.368 38.2649 157.25 38.3817C157.132 38.4985 157.022 38.8438 157.298 38.6765C157.457 38.544 157.647 38.4528 157.85 38.4109C158.04 38.3763 158.225 38.3239 158.405 38.2542V38.2569ZM153.508 31.6686C153.948 31.4031 154.071 30.872 154.2 30.5002C154.315 30.1562 154.491 29.8352 154.72 29.5522C154.76 29.5018 154.666 29.2389 154.61 29.1167C154.604 29.0987 154.594 29.0824 154.58 29.0689C154.557 29.0649 154.534 29.0649 154.511 29.0689C154.473 29.0689 154.43 29.0689 154.411 29.0291C154.451 28.885 154.481 28.7387 154.502 28.5909C154.52 28.3443 154.496 28.0965 154.43 27.858C154.41 27.7555 154.356 27.6623 154.277 27.5925C154.234 27.5553 154.277 27.6827 154.301 27.8846C154.312 28.1348 154.264 28.3841 154.159 28.6122C154.033 28.8618 153.891 29.0848 153.824 29.2256C153.757 29.3663 153.798 29.4911 153.915 29.5124C153.956 29.5124 153.991 29.5124 154.004 29.6053C154.023 29.7301 154.004 29.993 153.532 30.5374C153.338 30.7398 153.127 30.9246 152.9 31.0897C152.911 31.1716 152.911 31.2548 152.9 31.3367C152.886 31.4478 152.849 31.5547 152.79 31.65C152.767 31.6684 152.743 31.6844 152.717 31.6978C152.487 31.8412 152.717 32.1599 152.717 32.1599C152.717 32.1599 152.905 32.0643 153.521 31.6766L153.508 31.6686ZM147.839 24.9529C148.226 24.2348 148.69 23.5607 149.225 22.9427C149.436 22.7186 149.663 22.5109 149.906 22.3213C150.107 22.1753 149.833 22.1965 149.158 22.6479C148.842 22.8619 148.57 23.132 148.354 23.4446C147.821 24.2335 147.351 25.0618 146.947 25.9222C146.736 26.3738 146.443 26.7833 146.084 27.1304C145.676 27.4809 145.25 27.6111 145.012 27.8208C144.983 27.8436 144.956 27.8685 144.931 27.8952C144.902 27.9209 144.878 27.9515 144.859 27.9855C144.825 28.0465 144.809 28.1152 144.811 28.1846C144.822 28.2455 144.822 28.3081 144.809 28.3687C144.796 28.4294 144.771 28.4869 144.736 28.5378C144.598 28.6543 144.437 28.7403 144.264 28.7901L144.199 28.8087L143.977 28.8671C143.789 28.8936 143.685 28.9786 143.84 29.0663C143.899 29.0984 143.962 29.1216 144.028 29.1353C144.17 29.1725 144.21 29.199 144.208 29.2628C144.205 29.3265 144.106 29.4964 143.738 29.608C143.27 29.7235 142.787 29.7753 142.305 29.762C142.078 29.7393 141.85 29.7393 141.624 29.762C141.562 29.7939 141.584 29.8709 141.841 29.9505C141.98 29.9877 142.331 30.0488 142.492 30.1045C142.591 30.1391 142.564 30.2214 142.441 30.2426C142.068 30.2837 141.691 30.2548 141.329 30.1577C141.329 30.1577 141.2 30.1125 141.149 30.0886C140.996 30.0137 140.864 29.9001 140.769 29.7593C140.734 29.6956 140.72 29.5788 140.67 29.5469L140.402 29.9213C140.402 29.9213 140.364 30.0355 140.568 30.2878C140.597 30.2533 140.594 30.1922 140.621 30.147C140.648 30.1019 140.739 30.0382 140.796 30.1178C140.814 30.1549 140.824 30.1958 140.824 30.2373C140.824 30.2788 140.814 30.3198 140.796 30.3568C140.776 30.392 140.765 30.431 140.763 30.471C140.762 30.4798 140.762 30.4887 140.763 30.4976C140.957 30.6344 141.18 30.7253 141.415 30.7631C141.894 30.8605 142.389 30.8514 142.865 30.7366C142.91 30.7366 143.103 30.6888 143.117 30.7366C143.113 30.806 143.095 30.8739 143.063 30.9357C143.023 31.034 143.001 31.0632 142.977 31.1243C142.953 31.1853 142.999 31.188 143.007 31.18C143.081 31.1365 143.148 31.0819 143.205 31.018C143.277 30.9517 143.5 30.7525 143.556 30.6914C143.752 30.5162 143.862 30.4259 143.824 30.3356C143.824 30.3196 143.797 30.2214 143.792 30.1895C143.792 30.0594 143.856 29.9426 144.06 29.7992C144.274 29.6873 144.476 29.5548 144.663 29.4035C144.861 29.2043 144.719 28.9839 144.888 28.7954C145.057 28.6069 145.344 28.5298 145.424 28.3865C145.574 28.1793 145.569 28.1209 145.722 27.8766C146.002 27.5339 146.303 27.2093 146.625 26.9047C147.161 26.3046 147.349 25.7655 147.821 24.9556L147.839 24.9529ZM154.047 15.5711C153.934 15.6056 153.835 15.6746 153.873 15.7357C153.91 15.7968 154.023 15.7888 154.237 15.6932C154.452 15.5976 154.545 15.51 154.446 15.5047C154.312 15.5169 154.178 15.5391 154.047 15.5711ZM143.519 21.0732C142.932 21.1768 142.736 21.2113 142.626 21.2352C141.637 22.1115 142.157 22.9294 142.476 23.1233C142.69 23.2587 142.46 23.0463 143.414 21.8672C143.779 21.4997 144.178 21.168 144.607 20.8767C144.5 20.8767 144.028 20.983 143.519 21.0732ZM156.18 14.8621C156.345 14.9401 156.504 15.0288 156.657 15.1276C156.691 15.1566 156.724 15.1876 156.754 15.2206C156.798 15.2134 156.838 15.1929 156.869 15.1619C156.9 15.131 156.921 15.0911 156.928 15.0479C156.947 14.9577 156.858 14.8886 156.676 14.8621C156.494 14.8355 156.408 14.7983 156.309 14.7877C156.278 14.7833 156.246 14.7852 156.216 14.7934C156.185 14.8017 156.157 14.816 156.132 14.8355L156.18 14.8594" fill="#f2f2f2"/>
</svg>
